# xmcd
#
# Track frame offsets: 
#        150
#        10912
#        21353
#        29997
#        40351
#        49533
#        61803
#        73620
#        87450
#        98875
#        107940
#        117913
#        130900
#        141136
#        151915
#        157999
#        167599
#        176224
#        185122
#        197068
#        206475
#        216836
#        224606
#        234702
#
# Disc length: 3264 seconds
#
# Revision: 0
# Processed by: cddbd v1.5.2PL0 Copyright (c) Steve Scherf et al.
# Submitted via: ExactAudioCopyFreeDBPlugin 1.0
#
DISCID=6a0cbe18
DTITLE=Cash, Johnny - The Complete Releases 1957-1962 [CD2]
DYEAR=1959
DGENRE=Country
TTITLE0=Run Softly Blue River
TTITLE1=Frankies Man Johnny
TTITLE2=That's All Over
TTITLE3=The Troubadour
TTITLE4=One More Ride
TTITLE5=That's Enough
TTITLE6=I Still Miss Someone
TTITLE7=Don't Take Your Guns To Town
TTITLE8=I'd Rather Die Young
TTITLE9=Pickin' Time
TTITLE10=Shepherd Of My Heart
TTITLE11=Suppertime
TTITLE12=Goodbye Little Darlin' Goodbye
TTITLE13=I Just Thought You'd Like To Know
TTITLE14=You Tell Me
TTITLE15=It's Just About Time
TTITLE16=I Forgot To Remember To Forget
TTITLE17=Katy Too
TTITLE18=Thanks A Lot
TTITLE19=Luther Played The Boogie
TTITLE20=You Win Again
TTITLE21=Hey Good Lookin'
TTITLE22=I Could Never Be Ashamed Of You
TTITLE23=Get Rhythm
EXTD=
EXTT0=
EXTT1=
EXTT2=
EXTT3=
EXTT4=
EXTT5=
EXTT6=
EXTT7=
EXTT8=
EXTT9=
EXTT10=
EXTT11=
EXTT12=
EXTT13=
EXTT14=
EXTT15=
EXTT16=
EXTT17=
EXTT18=
EXTT19=
EXTT20=
EXTT21=
EXTT22=
EXTT23=
PLAYORDER=
